<svg xmlns="http://www.w3.org/2000/svg" viewBox="0 0 760.26 143.82"><defs><style>.cls-1{fill:#fff;}</style></defs><title>资源 1</title><g id="图层_2" data-name="图层 2"><g id="图层_1-2" data-name="图层 1"><path class="cls-1" d="M568.4,52.46q-13.52-24.11-39.28-24.11h-43l-.45.45v82.68l.23.23-.23.23v1.88l.45.45h15v-20h0v-50h29.59a24.87,24.87,0,0,1,13.59,4.43q12.17,9,12.17,21.48v2.55q0,7.43-5.26,15-9.09,11.12-21.85,11.11h-19v15.47H533a30.43,30.43,0,0,0,10.44-2.1q9.16-2.1,20.13-13.89a44.84,44.84,0,0,0,9.16-27A46.13,46.13,0,0,0,568.4,52.46Z"/><path class="cls-1" d="M645.68,69.43q-6.53-16.9-27.79-16.9H585.07l-.53.6v1.65l.53,3.38q4.51,8.41,12.39,8.41h17.95a54.76,54.76,0,0,1,9.24.6q7.28,2.63,7.28,9.24H603.62l-3.68.3q-15.4,4-15.4,17.95v2.78a14,14,0,0,0,2.25,7q6.61,9.84,16.82,9.84H622.7v-14h-16q-7.89-.3-7.89-4.73v-.6q.9-4.43,5.93-4.43h27.19v23.81h.83l3.08-.3q11-3.83,11-14.27V76.41A23.37,23.37,0,0,0,645.68,69.43Z"/><path class="cls-1" d="M759.14,69.43q-6.53-16.9-27.79-16.9H698.53l-.53.6v1.65l.53,3.38q4.51,8.41,12.39,8.41h17.95a54.76,54.76,0,0,1,9.24.6q7.28,2.63,7.28,9.24H717.08l-3.68.3Q698,80.7,698,94.66v2.78a14,14,0,0,0,2.25,7q6.61,9.84,16.82,9.84h19.08v-14h-16q-7.89-.3-7.89-4.73v-.6q.9-4.43,5.93-4.43h27.19V96h0v18.23h.83l3.08-.3q11-3.83,11-14.27V76.41A23.37,23.37,0,0,0,759.14,69.43Z"/><path class="cls-1" d="M689.82,109.08q-3.6-9.61-14.27-9.61h-2.48V66.73a17.16,17.16,0,0,0,4.81-.68q9.69-3.83,9.69-13.74l-.38-.38H673.07V42.09a13.9,13.9,0,0,0-.53-3.75q-4-10-13.74-10c-.35,0-.53.13-.53.38V51.93h0V66.73h0v33.79a13.82,13.82,0,0,0,.53,3.75q3.6,10,14.64,10H690.2l.38-.38A15.12,15.12,0,0,0,689.82,109.08Z"/><path class="cls-1" d="M337.4,69.43q-6.53-16.9-27.79-16.9H276.79l-.53.6v1.65l.53,3.38q4.51,8.41,12.39,8.41h17.95a54.76,54.76,0,0,1,9.24.6q7.28,2.63,7.28,9.24H295.34l-3.68.3q-15.4,4-15.4,17.95v2.78a14,14,0,0,0,2.25,7q6.61,9.84,16.82,9.84H314.5v-14H298.42q-7.89-.3-7.89-4.73v-.6q.9-4.43,5.93-4.43h27.19v.22h.08v23.58h.75l3.08-.3q11-3.83,11-14.27V76.41A23.37,23.37,0,0,0,337.4,69.43Z"/><path class="cls-1" d="M402.73,71.16q-9.24-18.4-29.51-18.4H348.81l-.38.38v83.36l.15.15a15.46,15.46,0,0,0,5.78-1.05q8.56-4.21,8.56-12.39v-6.78h0V95h0V67.25h12.92a14,14,0,0,1,5.93,1.58q9.09,5.18,9.09,14.34a16.18,16.18,0,0,1-2.78,9.24q-5.48,7-12.24,7h-3.69v14.49h4.74q7.89,0,16.45-6.08,12-9.91,12-24.11A31.7,31.7,0,0,0,402.73,71.16Z"/><path class="cls-1" d="M470.25,71.16q-9.24-18.4-29.51-18.4H416.32l-.38.38v83.36l.15.15a15.46,15.46,0,0,0,5.78-1.05q8.56-4.21,8.56-12.39v-7.57h0v-20h0V67.25h12.92a14,14,0,0,1,5.93,1.58q9.09,5.18,9.09,14.34a16.18,16.18,0,0,1-2.78,9.24q-5.48,7-12.24,7h-3.69v14.49h4.74q7.89,0,16.45-6.08,12-9.91,12-24.11A31.7,31.7,0,0,0,470.25,71.16Z"/><path class="cls-1" d="M260.12,52.46Q246.6,28.35,220.84,28.35h-43l-.45.45v82.68l.23.23-.23.23v1.88l.45.45h15V98.79h0V44.2h29.59a24.87,24.87,0,0,1,13.59,4.43q12.17,9,12.17,21.48v2.55q0,7.43-5.26,15-9.09,11.12-21.85,11.11h-19v15.47h22.54a30.43,30.43,0,0,0,10.44-2.1q9.16-2.1,20.13-13.89a44.84,44.84,0,0,0,9.16-27A46.13,46.13,0,0,0,260.12,52.46Z"/><path class="cls-1" d="M119.4,62.64a9.56,9.56,0,0,0-6.06,2.15L19.17,10.42c0-.27,0-.54,0-.82A9.61,9.61,0,1,0,6.48,18.68V125.14a9.61,9.61,0,1,0,6.4.05V18.63a9.6,9.6,0,0,0,3.62-2.35l93.49,54a9.6,9.6,0,0,0,0,3.89L40.83,114.08a9.59,9.59,0,0,0-3.3-2V95h0V87.64h0V59.7a7.48,7.48,0,0,0,2.3-1.62l22,12.68a7.37,7.37,0,0,0,0,2.87l-8.55,4.94a6.4,6.4,0,1,0,3.54,5.72c0-.12,0-.24,0-.36l8.89-5.13a7.47,7.47,0,1,0,0-13.21L41.85,51.85a7.47,7.47,0,1,0-10.72,7.72V95.24h0v16.85a9.65,9.65,0,1,0,12.69,7.65l69.45-40.1a9.61,9.61,0,1,0,6.12-17Z"/></g></g></svg>