<svg xmlns="http://www.w3.org/2000/svg" viewBox="0 0 129 143.82"><defs><style>.cls-1{fill:#fff;}</style></defs><title>资源 2</title><g id="图层_2" data-name="图层 2"><g id="图层_1-2" data-name="图层 1"><path class="cls-1" d="M119.4,62.64a9.56,9.56,0,0,0-6.06,2.15L19.17,10.42c0-.27,0-.54,0-.82A9.61,9.61,0,1,0,6.48,18.68V125.14a9.61,9.61,0,1,0,6.4.05V18.63a9.6,9.6,0,0,0,3.62-2.35l93.49,54a9.6,9.6,0,0,0,0,3.89L40.83,114.08a9.59,9.59,0,0,0-3.3-2V95h0V87.64h0V59.7a7.48,7.48,0,0,0,2.3-1.62l22,12.68a7.37,7.37,0,0,0,0,2.87l-8.55,4.94a6.4,6.4,0,1,0,3.54,5.72c0-.12,0-.24,0-.36l8.89-5.13a7.47,7.47,0,1,0,0-13.21L41.85,51.85a7.47,7.47,0,1,0-10.72,7.72V95.24h0v16.85a9.65,9.65,0,1,0,12.69,7.65l69.45-40.1a9.61,9.61,0,1,0,6.12-17Z"/></g></g></svg>